<svg xmlns="http://www.w3.org/2000/svg" xmlns:xlink="http://www.w3.org/1999/xlink" width="140" zoomAndPan="magnify" viewBox="0 0 104.88 104.999996" height="140" preserveAspectRatio="xMidYMid meet" version="1.0"><defs><clipPath id="b51d75a0f2"><path d="M 0 0.0585938 L 104.761719 0.0585938 L 104.761719 104.9375 L 0 104.9375 Z M 0 0.0585938 " clip-rule="nonzero"/></clipPath><linearGradient x1="1" gradientTransform="matrix(-104.88, 0, 0, -104.88, 104.88, 104.939997)" y1="0.5" x2="0.00114286" gradientUnits="userSpaceOnUse" y2="0.5" id="013077835c"><stop stop-opacity="1" stop-color="rgb(33.299255%, 41.598511%, 45.899963%)" offset="0"/><stop stop-opacity="1" stop-color="rgb(33.21991%, 41.505432%, 45.797729%)" offset="0.0078125"/><stop stop-opacity="1" stop-color="rgb(33.059692%, 41.317749%, 45.596313%)" offset="0.015625"/><stop stop-opacity="1" stop-color="rgb(32.901001%, 41.130066%, 45.393372%)" offset="0.0234375"/><stop stop-opacity="1" stop-color="rgb(32.74231%, 40.943909%, 45.191956%)" offset="0.03125"/><stop stop-opacity="1" stop-color="rgb(32.582092%, 40.756226%, 44.989014%)" offset="0.0390625"/><stop stop-opacity="1" stop-color="rgb(32.423401%, 40.568542%, 44.787598%)" offset="0.046875"/><stop stop-opacity="1" stop-color="rgb(32.264709%, 40.380859%, 44.584656%)" offset="0.0546875"/><stop stop-opacity="1" stop-color="rgb(32.104492%, 40.194702%, 44.38324%)" offset="0.0625"/><stop stop-opacity="1" stop-color="rgb(31.945801%, 40.007019%, 44.180298%)" offset="0.0703125"/><stop stop-opacity="1" stop-color="rgb(31.787109%, 39.819336%, 43.978882%)" offset="0.078125"/><stop stop-opacity="1" stop-color="rgb(31.626892%, 39.631653%, 43.777466%)" offset="0.0859375"/><stop stop-opacity="1" stop-color="rgb(31.468201%, 39.445496%, 43.574524%)" offset="0.09375"/><stop stop-opacity="1" stop-color="rgb(31.309509%, 39.257812%, 43.373108%)" offset="0.101562"/><stop stop-opacity="1" stop-color="rgb(31.149292%, 39.070129%, 43.170166%)" offset="0.109375"/><stop stop-opacity="1" stop-color="rgb(30.990601%, 38.882446%, 42.96875%)" offset="0.117187"/><stop stop-opacity="1" stop-color="rgb(30.831909%, 38.696289%, 42.765808%)" offset="0.125"/><stop stop-opacity="1" stop-color="rgb(30.671692%, 38.508606%, 42.564392%)" offset="0.132812"/><stop stop-opacity="1" stop-color="rgb(30.513%, 38.320923%, 42.36145%)" offset="0.140625"/><stop stop-opacity="1" stop-color="rgb(30.354309%, 38.13324%, 42.160034%)" offset="0.148438"/><stop stop-opacity="1" stop-color="rgb(30.194092%, 37.947083%, 41.957092%)" offset="0.15625"/><stop stop-opacity="1" stop-color="rgb(30.0354%, 37.759399%, 41.755676%)" offset="0.164062"/><stop stop-opacity="1" stop-color="rgb(29.876709%, 37.571716%, 41.552734%)" offset="0.171875"/><stop stop-opacity="1" stop-color="rgb(29.716492%, 37.384033%, 41.351318%)" offset="0.179688"/><stop stop-opacity="1" stop-color="rgb(29.5578%, 37.197876%, 41.149902%)" offset="0.1875"/><stop stop-opacity="1" stop-color="rgb(29.399109%, 37.010193%, 40.94696%)" offset="0.195312"/><stop stop-opacity="1" stop-color="rgb(29.238892%, 36.82251%, 40.745544%)" offset="0.203125"/><stop stop-opacity="1" stop-color="rgb(29.0802%, 36.636353%, 40.542603%)" offset="0.210937"/><stop stop-opacity="1" stop-color="rgb(28.921509%, 36.448669%, 40.341187%)" offset="0.21875"/><stop stop-opacity="1" stop-color="rgb(28.761292%, 36.260986%, 40.138245%)" offset="0.226562"/><stop stop-opacity="1" stop-color="rgb(28.6026%, 36.073303%, 39.936829%)" offset="0.234375"/><stop stop-opacity="1" stop-color="rgb(28.443909%, 35.887146%, 39.733887%)" offset="0.242188"/><stop stop-opacity="1" stop-color="rgb(28.283691%, 35.699463%, 39.532471%)" offset="0.25"/><stop stop-opacity="1" stop-color="rgb(28.125%, 35.51178%, 39.329529%)" offset="0.257812"/><stop stop-opacity="1" stop-color="rgb(27.966309%, 35.324097%, 39.128113%)" offset="0.265625"/><stop stop-opacity="1" stop-color="rgb(27.806091%, 35.137939%, 38.926697%)" offset="0.273438"/><stop stop-opacity="1" stop-color="rgb(27.6474%, 34.950256%, 38.723755%)" offset="0.28125"/><stop stop-opacity="1" stop-color="rgb(27.488708%, 34.762573%, 38.522339%)" offset="0.289062"/><stop stop-opacity="1" stop-color="rgb(27.330017%, 34.57489%, 38.319397%)" offset="0.296875"/><stop stop-opacity="1" stop-color="rgb(27.1698%, 34.388733%, 38.117981%)" offset="0.304688"/><stop stop-opacity="1" stop-color="rgb(27.011108%, 34.20105%, 37.915039%)" offset="0.3125"/><stop stop-opacity="1" stop-color="rgb(26.852417%, 34.013367%, 37.713623%)" offset="0.320312"/><stop stop-opacity="1" stop-color="rgb(26.6922%, 33.825684%, 37.510681%)" offset="0.328125"/><stop stop-opacity="1" stop-color="rgb(26.533508%, 33.639526%, 37.309265%)" offset="0.335938"/><stop stop-opacity="1" stop-color="rgb(26.374817%, 33.451843%, 37.106323%)" offset="0.34375"/><stop stop-opacity="1" stop-color="rgb(26.2146%, 33.26416%, 36.904907%)" offset="0.351562"/><stop stop-opacity="1" stop-color="rgb(26.055908%, 33.076477%, 36.703491%)" offset="0.359375"/><stop stop-opacity="1" stop-color="rgb(25.897217%, 32.89032%, 36.500549%)" offset="0.367188"/><stop stop-opacity="1" stop-color="rgb(25.737%, 32.702637%, 36.299133%)" offset="0.375"/><stop stop-opacity="1" stop-color="rgb(25.578308%, 32.514954%, 36.096191%)" offset="0.382812"/><stop stop-opacity="1" stop-color="rgb(25.419617%, 32.327271%, 35.894775%)" offset="0.390625"/><stop stop-opacity="1" stop-color="rgb(25.259399%, 32.141113%, 35.691833%)" offset="0.398437"/><stop stop-opacity="1" stop-color="rgb(25.100708%, 31.95343%, 35.490417%)" offset="0.40625"/><stop stop-opacity="1" stop-color="rgb(24.942017%, 31.765747%, 35.287476%)" offset="0.414062"/><stop stop-opacity="1" stop-color="rgb(24.781799%, 31.57959%, 35.08606%)" offset="0.421875"/><stop stop-opacity="1" stop-color="rgb(24.623108%, 31.391907%, 34.883118%)" offset="0.429688"/><stop stop-opacity="1" stop-color="rgb(24.464417%, 31.204224%, 34.681702%)" offset="0.4375"/><stop stop-opacity="1" stop-color="rgb(24.304199%, 31.016541%, 34.480286%)" offset="0.445312"/><stop stop-opacity="1" stop-color="rgb(24.145508%, 30.830383%, 34.277344%)" offset="0.453125"/><stop stop-opacity="1" stop-color="rgb(23.986816%, 30.6427%, 34.075928%)" offset="0.460938"/><stop stop-opacity="1" stop-color="rgb(23.826599%, 30.455017%, 33.872986%)" offset="0.46875"/><stop stop-opacity="1" stop-color="rgb(23.667908%, 30.267334%, 33.67157%)" offset="0.476562"/><stop stop-opacity="1" stop-color="rgb(23.509216%, 30.081177%, 33.468628%)" offset="0.484375"/><stop stop-opacity="1" stop-color="rgb(23.348999%, 29.893494%, 33.267212%)" offset="0.492187"/><stop stop-opacity="1" stop-color="rgb(23.190308%, 29.705811%, 33.06427%)" offset="0.5"/><stop stop-opacity="1" stop-color="rgb(23.031616%, 29.518127%, 32.862854%)" offset="0.507812"/><stop stop-opacity="1" stop-color="rgb(22.871399%, 29.33197%, 32.659912%)" offset="0.515625"/><stop stop-opacity="1" stop-color="rgb(22.712708%, 29.144287%, 32.458496%)" offset="0.523438"/><stop stop-opacity="1" stop-color="rgb(22.554016%, 28.956604%, 32.255554%)" offset="0.53125"/><stop stop-opacity="1" stop-color="rgb(22.393799%, 28.768921%, 32.054138%)" offset="0.539062"/><stop stop-opacity="1" stop-color="rgb(22.235107%, 28.582764%, 31.852722%)" offset="0.546875"/><stop stop-opacity="1" stop-color="rgb(22.076416%, 28.395081%, 31.64978%)" offset="0.554688"/><stop stop-opacity="1" stop-color="rgb(21.916199%, 28.207397%, 31.448364%)" offset="0.5625"/><stop stop-opacity="1" stop-color="rgb(21.757507%, 28.019714%, 31.245422%)" offset="0.570312"/><stop stop-opacity="1" stop-color="rgb(21.598816%, 27.833557%, 31.044006%)" offset="0.578125"/><stop stop-opacity="1" stop-color="rgb(21.438599%, 27.645874%, 30.841064%)" offset="0.585938"/><stop stop-opacity="1" stop-color="rgb(21.279907%, 27.458191%, 30.639648%)" offset="0.59375"/><stop stop-opacity="1" stop-color="rgb(21.121216%, 27.272034%, 30.436707%)" offset="0.601562"/><stop stop-opacity="1" stop-color="rgb(20.960999%, 27.084351%, 30.235291%)" offset="0.609375"/><stop stop-opacity="1" stop-color="rgb(20.802307%, 26.896667%, 30.032349%)" offset="0.617188"/><stop stop-opacity="1" stop-color="rgb(20.643616%, 26.708984%, 29.830933%)" offset="0.625"/><stop stop-opacity="1" stop-color="rgb(20.483398%, 26.522827%, 29.629517%)" offset="0.632812"/><stop stop-opacity="1" stop-color="rgb(20.324707%, 26.335144%, 29.426575%)" offset="0.640625"/><stop stop-opacity="1" stop-color="rgb(20.166016%, 26.147461%, 29.225159%)" offset="0.648438"/><stop stop-opacity="1" stop-color="rgb(20.005798%, 25.959778%, 29.022217%)" offset="0.65625"/><stop stop-opacity="1" stop-color="rgb(19.847107%, 25.773621%, 28.820801%)" offset="0.664062"/><stop stop-opacity="1" stop-color="rgb(19.688416%, 25.585938%, 28.617859%)" offset="0.671875"/><stop stop-opacity="1" stop-color="rgb(19.528198%, 25.398254%, 28.416443%)" offset="0.679688"/><stop stop-opacity="1" stop-color="rgb(19.369507%, 25.210571%, 28.213501%)" offset="0.6875"/><stop stop-opacity="1" stop-color="rgb(19.210815%, 25.024414%, 28.012085%)" offset="0.695312"/><stop stop-opacity="1" stop-color="rgb(19.050598%, 24.836731%, 27.809143%)" offset="0.703125"/><stop stop-opacity="1" stop-color="rgb(18.891907%, 24.649048%, 27.607727%)" offset="0.710938"/><stop stop-opacity="1" stop-color="rgb(18.733215%, 24.461365%, 27.406311%)" offset="0.71875"/><stop stop-opacity="1" stop-color="rgb(18.572998%, 24.275208%, 27.203369%)" offset="0.726562"/><stop stop-opacity="1" stop-color="rgb(18.414307%, 24.087524%, 27.001953%)" offset="0.734375"/><stop stop-opacity="1" stop-color="rgb(18.255615%, 23.899841%, 26.799011%)" offset="0.742188"/><stop stop-opacity="1" stop-color="rgb(18.095398%, 23.712158%, 26.597595%)" offset="0.75"/><stop stop-opacity="1" stop-color="rgb(17.936707%, 23.526001%, 26.394653%)" offset="0.757812"/><stop stop-opacity="1" stop-color="rgb(17.778015%, 23.338318%, 26.193237%)" offset="0.765625"/><stop stop-opacity="1" stop-color="rgb(17.617798%, 23.150635%, 25.990295%)" offset="0.773437"/><stop stop-opacity="1" stop-color="rgb(17.459106%, 22.964478%, 25.788879%)" offset="0.78125"/><stop stop-opacity="1" stop-color="rgb(17.300415%, 22.776794%, 25.585938%)" offset="0.789062"/><stop stop-opacity="1" stop-color="rgb(17.140198%, 22.589111%, 25.384521%)" offset="0.796875"/><stop stop-opacity="1" stop-color="rgb(16.981506%, 22.401428%, 25.183105%)" offset="0.804688"/><stop stop-opacity="1" stop-color="rgb(16.822815%, 22.215271%, 24.980164%)" offset="0.8125"/><stop stop-opacity="1" stop-color="rgb(16.662598%, 22.027588%, 24.778748%)" offset="0.820312"/><stop stop-opacity="1" stop-color="rgb(16.503906%, 21.839905%, 24.575806%)" offset="0.828125"/><stop stop-opacity="1" stop-color="rgb(16.345215%, 21.652222%, 24.37439%)" offset="0.835938"/><stop stop-opacity="1" stop-color="rgb(16.184998%, 21.466064%, 24.171448%)" offset="0.84375"/><stop stop-opacity="1" stop-color="rgb(16.026306%, 21.278381%, 23.970032%)" offset="0.851562"/><stop stop-opacity="1" stop-color="rgb(15.867615%, 21.090698%, 23.76709%)" offset="0.859375"/><stop stop-opacity="1" stop-color="rgb(15.708923%, 20.903015%, 23.565674%)" offset="0.867187"/><stop stop-opacity="1" stop-color="rgb(15.548706%, 20.716858%, 23.362732%)" offset="0.875"/><stop stop-opacity="1" stop-color="rgb(15.390015%, 20.529175%, 23.161316%)" offset="0.882812"/><stop stop-opacity="1" stop-color="rgb(15.231323%, 20.341492%, 22.958374%)" offset="0.890625"/><stop stop-opacity="1" stop-color="rgb(15.071106%, 20.153809%, 22.756958%)" offset="0.898438"/><stop stop-opacity="1" stop-color="rgb(14.912415%, 19.967651%, 22.555542%)" offset="0.90625"/><stop stop-opacity="1" stop-color="rgb(14.753723%, 19.779968%, 22.3526%)" offset="0.914062"/><stop stop-opacity="1" stop-color="rgb(14.593506%, 19.592285%, 22.151184%)" offset="0.921875"/><stop stop-opacity="1" stop-color="rgb(14.434814%, 19.404602%, 21.948242%)" offset="0.929688"/><stop stop-opacity="1" stop-color="rgb(14.276123%, 19.218445%, 21.746826%)" offset="0.9375"/><stop stop-opacity="1" stop-color="rgb(14.115906%, 19.030762%, 21.543884%)" offset="0.945312"/><stop stop-opacity="1" stop-color="rgb(13.957214%, 18.843079%, 21.342468%)" offset="0.953125"/><stop stop-opacity="1" stop-color="rgb(13.798523%, 18.656921%, 21.139526%)" offset="0.960937"/><stop stop-opacity="1" stop-color="rgb(13.638306%, 18.469238%, 20.93811%)" offset="0.96875"/><stop stop-opacity="1" stop-color="rgb(13.479614%, 18.281555%, 20.735168%)" offset="0.976562"/><stop stop-opacity="1" stop-color="rgb(13.320923%, 18.093872%, 20.533752%)" offset="0.984375"/><stop stop-opacity="1" stop-color="rgb(13.160706%, 17.907715%, 20.332336%)" offset="0.992188"/><stop stop-opacity="1" stop-color="rgb(13.002014%, 17.720032%, 20.129395%)" offset="1"/></linearGradient><clipPath id="00263faf5f"><path d="M 15 16.117188 L 90 16.117188 L 90 88.78125 L 15 88.78125 Z M 15 16.117188 " clip-rule="nonzero"/></clipPath></defs><g clip-path="url(#b51d75a0f2)"><path fill="#ffffff" d="M 0 0.0585938 L 104.878906 0.0585938 L 104.878906 104.941406 L 0 104.941406 Z M 0 0.0585938 " fill-opacity="1" fill-rule="nonzero"/><path fill="#ffffff" d="M 0 0.0585938 L 104.878906 0.0585938 L 104.878906 104.941406 L 0 104.941406 Z M 0 0.0585938 " fill-opacity="1" fill-rule="nonzero"/><path fill="url(#013077835c)" d="M 104.761719 104.941406 L 104.761719 0.0585938 L 0 0.0585938 L 0 104.941406 Z M 104.761719 104.941406 " fill-rule="nonzero"/></g><g clip-path="url(#00263faf5f)"><path fill="#eae9e9" d="M 71.996094 41.980469 C 71.753906 41.734375 71.4375 41.613281 71.117188 41.613281 C 70.804688 41.613281 70.488281 41.734375 70.246094 41.980469 L 67.613281 44.609375 L 58.832031 35.828125 L 60.980469 33.679688 C 62.40625 32.253906 63.042969 30.289062 62.71875 28.296875 C 62.398438 26.304688 61.175781 24.640625 59.367188 23.738281 L 49.511719 18.808594 L 49.578125 18.742188 L 67.191406 22.261719 C 69.359375 22.699219 71.335938 23.757812 72.898438 25.324219 L 79.902344 32.320312 L 77.265625 34.957031 C 77.03125 35.1875 76.90625 35.503906 76.90625 35.832031 C 76.90625 36.160156 77.03125 36.480469 77.265625 36.710938 L 79.898438 39.34375 C 80.195312 39.636719 80.617188 39.765625 81.023438 39.683594 L 84.109375 39.070312 C 84.519531 38.980469 84.9375 39.113281 85.234375 39.402344 L 86.925781 41.101562 L 76.390625 51.636719 L 74.695312 49.941406 C 74.398438 49.648438 74.273438 49.230469 74.355469 48.824219 L 74.976562 45.734375 C 75.050781 45.324219 74.925781 44.902344 74.628906 44.613281 Z M 25.914062 82.792969 C 24.46875 84.242188 22.101562 84.242188 20.648438 82.796875 C 19.199219 81.339844 19.199219 78.972656 20.648438 77.527344 L 58.828125 39.339844 L 64.101562 44.613281 Z M 73.390625 66.519531 C 76.441406 66.160156 79.433594 67.195312 81.605469 69.351562 C 84.140625 71.894531 85.082031 75.570312 84.171875 78.945312 L 78.695312 73.472656 C 78.460938 73.238281 78.148438 73.105469 77.8125 73.105469 L 72.550781 73.105469 C 71.867188 73.105469 71.308594 73.664062 71.308594 74.347656 L 71.308594 79.613281 C 71.308594 79.941406 71.4375 80.261719 71.671875 80.492188 L 77.148438 85.96875 C 73.773438 86.875 70.09375 85.941406 67.554688 83.402344 C 65.394531 81.234375 64.363281 78.238281 64.722656 75.191406 C 64.953125 73.253906 64.308594 71.367188 62.960938 70.03125 L 52.578125 59.648438 L 57.847656 54.375 L 68.226562 64.753906 C 69.566406 66.113281 71.457031 66.753906 73.390625 66.519531 Z M 30.28125 39.917969 C 30.019531 39.917969 29.757812 39.933594 29.496094 39.960938 C 26.4375 40.320312 23.445312 39.285156 21.277344 37.128906 C 18.742188 34.585938 17.800781 30.910156 18.710938 27.535156 L 24.1875 33.011719 C 24.421875 33.242188 24.742188 33.375 25.070312 33.375 L 30.332031 33.375 C 31.019531 33.375 31.574219 32.816406 31.574219 32.132812 L 31.574219 26.871094 C 31.574219 26.539062 31.445312 26.21875 31.210938 25.988281 L 25.734375 20.511719 C 29.113281 19.601562 32.789062 20.535156 35.324219 23.078125 C 37.488281 25.246094 38.519531 28.242188 38.167969 31.289062 C 37.929688 33.230469 38.570312 35.117188 39.921875 36.449219 L 49.066406 45.59375 L 43.792969 50.863281 L 34.65625 41.726562 C 33.496094 40.554688 31.933594 39.917969 30.28125 39.917969 Z M 72.9375 51.699219 L 75.511719 54.269531 C 75.753906 54.511719 76.070312 54.632812 76.390625 54.632812 C 76.707031 54.632812 77.023438 54.511719 77.265625 54.269531 L 89.558594 41.980469 C 90.042969 41.492188 90.042969 40.707031 89.558594 40.222656 L 86.988281 37.652344 C 86.105469 36.765625 84.851562 36.386719 83.621094 36.628906 L 81.1875 37.117188 L 79.898438 35.832031 L 82.535156 33.199219 C 82.769531 32.96875 82.898438 32.648438 82.898438 32.320312 C 82.898438 31.992188 82.769531 31.675781 82.535156 31.445312 L 74.660156 23.5625 C 72.742188 21.652344 70.328125 20.363281 67.679688 19.828125 L 49.414062 16.175781 C 49.007812 16.09375 48.585938 16.222656 48.292969 16.515625 L 46.539062 18.269531 C 46.257812 18.550781 46.125 18.953125 46.1875 19.347656 C 46.253906 19.746094 46.503906 20.082031 46.859375 20.257812 L 58.257812 25.957031 C 59.335938 26.5 60.074219 27.5 60.269531 28.695312 C 60.464844 29.890625 60.085938 31.070312 59.226562 31.925781 L 56.195312 34.957031 C 55.960938 35.1875 55.832031 35.503906 55.832031 35.832031 C 55.832031 36.160156 55.960938 36.480469 56.195312 36.710938 L 57.074219 37.585938 L 50.820312 43.835938 L 41.671875 34.6875 C 40.867188 33.894531 40.484375 32.761719 40.628906 31.578125 C 41.078125 27.773438 39.78125 24.03125 37.085938 21.320312 C 33.363281 17.601562 27.6875 16.632812 22.957031 18.90625 C 22.59375 19.082031 22.335938 19.421875 22.269531 19.816406 C 22.199219 20.214844 22.332031 20.617188 22.613281 20.90625 L 29.09375 27.378906 L 29.09375 30.890625 L 25.582031 30.890625 L 19.105469 24.410156 C 18.820312 24.128906 18.417969 24.003906 18.019531 24.066406 C 17.621094 24.136719 17.28125 24.390625 17.105469 24.753906 C 14.832031 29.484375 15.800781 35.164062 19.523438 38.882812 C 22.238281 41.582031 25.972656 42.875 29.789062 42.429688 C 30.964844 42.285156 32.09375 42.667969 32.894531 43.476562 L 42.039062 52.621094 L 18.886719 75.769531 C 16.476562 78.179688 16.472656 82.125 18.890625 84.554688 C 20.105469 85.761719 21.695312 86.363281 23.285156 86.363281 C 24.878906 86.363281 26.46875 85.757812 27.671875 84.554688 L 50.820312 61.402344 L 61.210938 71.792969 C 62.015625 72.589844 62.398438 73.71875 62.253906 74.902344 C 61.804688 78.710938 63.097656 82.445312 65.796875 85.160156 C 68.175781 87.535156 71.355469 88.792969 74.578125 88.792969 C 76.390625 88.792969 78.222656 88.394531 79.933594 87.574219 C 80.289062 87.402344 80.546875 87.0625 80.617188 86.664062 C 80.683594 86.265625 80.550781 85.863281 80.269531 85.578125 L 73.792969 79.101562 L 73.792969 75.589844 L 77.304688 75.589844 L 83.777344 82.070312 C 84.0625 82.351562 84.472656 82.476562 84.863281 82.414062 C 85.261719 82.347656 85.601562 82.089844 85.777344 81.726562 C 88.050781 76.996094 87.082031 71.316406 83.359375 67.597656 C 80.648438 64.902344 76.910156 63.605469 73.09375 64.050781 C 71.917969 64.199219 70.792969 63.8125 69.988281 63.003906 L 59.605469 52.621094 L 65.855469 46.367188 L 66.730469 47.246094 C 67.214844 47.730469 68 47.730469 68.484375 47.246094 L 71.117188 44.613281 L 72.410156 45.898438 L 71.917969 48.332031 C 71.671875 49.554688 72.054688 50.816406 72.9375 51.699219 " fill-opacity="1" fill-rule="nonzero"/></g><path stroke-linecap="round" transform="matrix(0.529724, -0.529724, 0.529724, 0.529724, 26.854131, 75.746863)" fill="none" stroke-linejoin="miter" d="M 1.498935 1.497484 L 28.6099 1.501171 " stroke="#ffffff" stroke-width="3" stroke-opacity="1" stroke-miterlimit="4"/><path stroke-linecap="round" transform="matrix(0.529724, -0.529724, 0.529724, 0.529724, 22.77199, 79.82615)" fill="none" stroke-linejoin="miter" d="M 1.500136 1.49649 L 5.618584 1.500177 " stroke="#ffffff" stroke-width="3" stroke-opacity="1" stroke-miterlimit="4"/><path stroke-linecap="round" transform="matrix(-0.529724, -0.529724, 0.529724, -0.529724, 65.097395, 67.342358)" fill="none" stroke-linejoin="miter" d="M 1.499073 1.499566 L 16.439048 1.499566 " stroke="#ffffff" stroke-width="3" stroke-opacity="1" stroke-miterlimit="4"/></svg>