<svg xmlns="http://www.w3.org/2000/svg" width="140" viewBox="0 0 104.88 104.999996" height="140" version="1.0" xmlns:xlink="http://www.w3.org/1999/xlink">
  <defs>
    <path fill="#fff" d="M0 .0585938h104.878906V104.941406H0Zm0 0" id="b"/>
  </defs>
  <defs>
    <clipPath id="a">
      <path d="M0 .0585938h104.761719V104.9375H0Zm0 0"/>
    </clipPath>
    <clipPath id="d">
      <path d="M23.066406 86.554688h7.71875v7.859374h-7.71875Zm0 0"/>
    </clipPath>
    <clipPath id="e">
      <path d="M25 25h65.449219v58H25Zm0 0"/>
    </clipPath>
    <clipPath id="f">
      <path d="M14.785156 68H32v15H14.785156Zm0 0"/>
    </clipPath>
    <clipPath id="g">
      <path d="M14.785156 17.34375H28V76H14.785156Zm0 0"/>
    </clipPath>
    <linearGradient x1="0.998857" gradientTransform="translate(0 .059997) scale(104.88)" y1="0.5" x2="0" gradientUnits="userSpaceOnUse" y2="0.5" id="c">
      <stop stop-color="#556A75" offset="0"/>
      <stop stop-color="#556A75" offset="0.0078125"/>
      <stop stop-color="#546974" offset="0.015625"/>
      <stop stop-color="#546974" offset="0.0234375"/>
      <stop stop-color="#536873" offset="0.03125"/>
      <stop stop-color="#536873" offset="0.0390625"/>
      <stop stop-color="#536772" offset="0.046875"/>
      <stop stop-color="#526772" offset="0.0546875"/>
      <stop stop-color="#526671" offset="0.0625"/>
      <stop stop-color="#516671" offset="0.0703125"/>
      <stop stop-color="#516570" offset="0.078125"/>
      <stop stop-color="#516570" offset="0.0859375"/>
      <stop stop-color="#50656F" offset="0.09375"/>
      <stop stop-color="#50646F" offset="0.101562"/>
      <stop stop-color="#4F646E" offset="0.109375"/>
      <stop stop-color="#4F636D" offset="0.117187"/>
      <stop stop-color="#4F636D" offset="0.125"/>
      <stop stop-color="#4E626C" offset="0.132812"/>
      <stop stop-color="#4E626C" offset="0.140625"/>
      <stop stop-color="#4D616B" offset="0.148438"/>
      <stop stop-color="#4D616B" offset="0.15625"/>
      <stop stop-color="#4D606A" offset="0.164062"/>
      <stop stop-color="#4C606A" offset="0.171875"/>
      <stop stop-color="#4C5F69" offset="0.179688"/>
      <stop stop-color="#4B5F69" offset="0.1875"/>
      <stop stop-color="#4B5E68" offset="0.195312"/>
      <stop stop-color="#4B5E68" offset="0.203125"/>
      <stop stop-color="#4A5D67" offset="0.210937"/>
      <stop stop-color="#4A5D67" offset="0.21875"/>
      <stop stop-color="#495C66" offset="0.226562"/>
      <stop stop-color="#495C66" offset="0.234375"/>
      <stop stop-color="#485B65" offset="0.242188"/>
      <stop stop-color="#485B65" offset="0.25"/>
      <stop stop-color="#485A64" offset="0.257812"/>
      <stop stop-color="#475A64" offset="0.265625"/>
      <stop stop-color="#475A63" offset="0.273438"/>
      <stop stop-color="#465963" offset="0.28125"/>
      <stop stop-color="#465962" offset="0.289062"/>
      <stop stop-color="#465862" offset="0.296875"/>
      <stop stop-color="#455861" offset="0.304688"/>
      <stop stop-color="#455761" offset="0.3125"/>
      <stop stop-color="#445760" offset="0.320312"/>
      <stop stop-color="#445660" offset="0.328125"/>
      <stop stop-color="#44565F" offset="0.335938"/>
      <stop stop-color="#43555F" offset="0.34375"/>
      <stop stop-color="#43555E" offset="0.351562"/>
      <stop stop-color="#42545E" offset="0.359375"/>
      <stop stop-color="#42545D" offset="0.367188"/>
      <stop stop-color="#42535C" offset="0.375"/>
      <stop stop-color="#41535C" offset="0.382812"/>
      <stop stop-color="#41525B" offset="0.390625"/>
      <stop stop-color="#40525B" offset="0.398437"/>
      <stop stop-color="#40515A" offset="0.40625"/>
      <stop stop-color="#40515A" offset="0.414062"/>
      <stop stop-color="#3F5059" offset="0.421875"/>
      <stop stop-color="#3F5059" offset="0.429688"/>
      <stop stop-color="#3E5058" offset="0.4375"/>
      <stop stop-color="#3E4F58" offset="0.445312"/>
      <stop stop-color="#3E4F57" offset="0.453125"/>
      <stop stop-color="#3D4E57" offset="0.460938"/>
      <stop stop-color="#3D4E56" offset="0.46875"/>
      <stop stop-color="#3C4D56" offset="0.476562"/>
      <stop stop-color="#3C4D55" offset="0.484375"/>
      <stop stop-color="#3B4C55" offset="0.492187"/>
      <stop stop-color="#3B4C54" offset="0.5"/>
      <stop stop-color="#3B4B54" offset="0.507812"/>
      <stop stop-color="#3A4B53" offset="0.515625"/>
      <stop stop-color="#3A4A53" offset="0.523438"/>
      <stop stop-color="#394A52" offset="0.53125"/>
      <stop stop-color="#394952" offset="0.539062"/>
      <stop stop-color="#394951" offset="0.546875"/>
      <stop stop-color="#384851" offset="0.554688"/>
      <stop stop-color="#384850" offset="0.5625"/>
      <stop stop-color="#374750" offset="0.570312"/>
      <stop stop-color="#37474F" offset="0.578125"/>
      <stop stop-color="#37464F" offset="0.585938"/>
      <stop stop-color="#36464E" offset="0.59375"/>
      <stop stop-color="#36454E" offset="0.601562"/>
      <stop stop-color="#35454D" offset="0.609375"/>
      <stop stop-color="#35454D" offset="0.617188"/>
      <stop stop-color="#35444C" offset="0.625"/>
      <stop stop-color="#34444B" offset="0.632812"/>
      <stop stop-color="#34434B" offset="0.640625"/>
      <stop stop-color="#33434A" offset="0.648438"/>
      <stop stop-color="#33424A" offset="0.65625"/>
      <stop stop-color="#334249" offset="0.664062"/>
      <stop stop-color="#324149" offset="0.671875"/>
      <stop stop-color="#324148" offset="0.679688"/>
      <stop stop-color="#314048" offset="0.6875"/>
      <stop stop-color="#314047" offset="0.695312"/>
      <stop stop-color="#313F47" offset="0.703125"/>
      <stop stop-color="#303F46" offset="0.710938"/>
      <stop stop-color="#303E46" offset="0.71875"/>
      <stop stop-color="#2F3E45" offset="0.726562"/>
      <stop stop-color="#2F3D45" offset="0.734375"/>
      <stop stop-color="#2E3D44" offset="0.742188"/>
      <stop stop-color="#2E3C44" offset="0.75"/>
      <stop stop-color="#2E3C43" offset="0.757812"/>
      <stop stop-color="#2D3B43" offset="0.765625"/>
      <stop stop-color="#2D3B42" offset="0.773437"/>
      <stop stop-color="#2C3A42" offset="0.78125"/>
      <stop stop-color="#2C3A41" offset="0.789062"/>
      <stop stop-color="#2C3A41" offset="0.796875"/>
      <stop stop-color="#2B3940" offset="0.804688"/>
      <stop stop-color="#2B3940" offset="0.8125"/>
      <stop stop-color="#2A383F" offset="0.820312"/>
      <stop stop-color="#2A383F" offset="0.828125"/>
      <stop stop-color="#2A373E" offset="0.835938"/>
      <stop stop-color="#29373E" offset="0.84375"/>
      <stop stop-color="#29363D" offset="0.851562"/>
      <stop stop-color="#28363D" offset="0.859375"/>
      <stop stop-color="#28353C" offset="0.867187"/>
      <stop stop-color="#28353C" offset="0.875"/>
      <stop stop-color="#27343B" offset="0.882812"/>
      <stop stop-color="#27343A" offset="0.890625"/>
      <stop stop-color="#26333A" offset="0.898438"/>
      <stop stop-color="#263339" offset="0.90625"/>
      <stop stop-color="#263239" offset="0.914062"/>
      <stop stop-color="#253238" offset="0.921875"/>
      <stop stop-color="#253138" offset="0.929688"/>
      <stop stop-color="#243137" offset="0.9375"/>
      <stop stop-color="#243037" offset="0.945312"/>
      <stop stop-color="#243036" offset="0.953125"/>
      <stop stop-color="#233036" offset="0.960937"/>
      <stop stop-color="#232F35" offset="0.96875"/>
      <stop stop-color="#222F35" offset="0.976562"/>
      <stop stop-color="#222E34" offset="0.984375"/>
      <stop stop-color="#222E34" offset="0.992188"/>
      <stop stop-color="#212D33" offset="1"/>
    </linearGradient>
  </defs>
  <g clip-path="url(#a)">
    <use xlink:href="#b"/>
    <use xlink:href="#b"/>
    <path fill="url(#c)" d="M0 .0585938V104.941406h104.761719V.0585938Zm0 0"/>
  </g>
  <path fill="#eae9e9" d="m28.839844 87.765625 1.492187 3.195313 30.640625-14.289063-1.492187-3.195313Zm1.105468 5.054687c-.300781 0-.589843-.171874-.726562-.460937l-2.164062-4.644531c-.089844-.191406-.097657-.410156-.023438-.609375.070312-.199219.21875-.359375.410156-.449219L59.53125 71.691406c.398438-.183594.875-.011718 1.058594.386719l2.167968 4.644531c.085938.191406.097657.410156.023438.609375-.070312.199219-.21875.359375-.410156.449219L30.28125 92.746094c-.109375.050781-.222656.074218-.335938.074218"/>
  <path fill="#eae9e9" d="M62.03125 77.855469c-.210938 0-.417969-.082031-.578125-.246094-.300781-.320313-.289063-.824219.03125-1.128906l4.085937-3.898438-5.613281.628907c-.441406.046874-.832031-.269532-.882812-.707032-.046875-.4375.265625-.832031.707031-.878906l7.964844-.890625c.34375-.039063.667968.144531.8125.453125.144531.3125.078125.679688-.171875.917969l-5.804688 5.53125c-.152343.148437-.351562.21875-.550781.21875"/>
  <g clip-path="url(#d)">
    <path fill="#eae9e9" d="m27.394531 88.441406-2.460937 1.144532c-.125.058593-.175782.160156-.195313.214843-.019531.050781-.042969.164063.011719.285157l1.175781 2.515624c.082031.179688.308594.269532.496094.179688l2.460937-1.144531Zm-1.128906 5.972656c-.765625 0-1.464844-.445312-1.789063-1.136718l-1.171874-2.515625c-.222657-.476563-.246094-1.015625-.066407-1.507813.179688-.496094.542969-.890625 1.019531-1.113281l3.183594-1.484375c.398438-.1875.875-.011719 1.0625.386719l2.164063 4.640625c.183593.398437.011719.875-.386719 1.0625l-3.183594 1.484375c-.265625.121093-.542968.183593-.832031.183593"/>
  </g>
  <path fill="#eae9e9" d="M67.835938 72.324219c-.300782 0-.585938-.171875-.722657-.460938-.1875-.398437-.011719-.875.386719-1.058593l1.195312-.558594c.398438-.1875.875-.011719 1.058594.386718.1875.398438.015625.875-.386718 1.058594L68.175781 72.25c-.109375.050781-.226562.074219-.339843.074219m17.574218 6.726562c-.441406 0-.796875-.355469-.796875-.796875V62.914062c0-.441406.355469-.800781.796875-.800781s.796875.359375.796875.800781v15.339844c0 .441406-.355469.796875-.796875.796875"/>
  <g clip-path="url(#e)">
    <path fill="#eae9e9" d="M89.289062 82.929688H59.25c-.441406 0-.796875-.359376-.796875-.800782s.355469-.796875.796875-.796875h29.238281V27.121094H26.226562c-.441406 0-.796874-.359375-.796874-.800782 0-.4375.355468-.796874.796874-.796874h63.0625c.4375 0 .796876.359374.796876.796874v55.808594c0 .441406-.359376.800782-.796876.800782"/>
  </g>
  <g clip-path="url(#f)">
    <path fill="#eae9e9" d="M30.945312 82.929688h-7.972656c-4.515625 0-8.1875-3.675782-8.1875-8.191407 0-3.699219 3.011719-6.710937 6.710938-6.710937 3.046875 0 5.527344 2.480468 5.527344 5.527344 0 2.527343-2.054688 4.582031-4.582032 4.582031-2.109375 0-3.824218-1.714844-3.824218-3.824219 0-.441406.355468-.796875.796874-.796875.441407 0 .796876.355469.796876.796875 0 1.230469 1 2.230469 2.230468 2.230469 1.648438 0 2.988282-1.339844 2.988282-2.988281 0-2.167969-1.765626-3.933594-3.933594-3.933594-2.820313 0-5.113282 2.296875-5.113282 5.117187 0 3.636719 2.957032 6.59375 6.589844 6.59375h7.972656c.441407 0 .796876.355469.796876.796875s-.355469.800782-.796876.800782"/>
  </g>
  <g clip-path="url(#g)">
    <path fill="#eae9e9" d="M15.582031 75.535156c-.441406 0-.796875-.355468-.796875-.796875V24.085938c0-3.703126 3.011719-6.714844 6.710938-6.714844 3.046875 0 5.527344 2.480468 5.527344 5.53125v50.652344c0 .441406-.355469.800781-.796876.800781-.441406 0-.796874-.359375-.796874-.800781V22.902344c0-2.167969-1.765626-3.933594-3.933594-3.933594-2.820313 0-5.113282 2.296875-5.113282 5.117188v50.652343c0 .441407-.359374.796875-.800781.796875"/>
  </g>
  <path fill="#eae9e9" d="M19.460938 43.988281c-.441407 0-.800782-.355469-.800782-.796875V25.582031c0-.441406.359375-.796875.800782-.796875.4375 0 .796874.355469.796874.796875v17.609375c0 .441406-.359374.796875-.796874.796875m0 5.453125c-.441407 0-.800782-.355468-.800782-.796875v-1.8125c0-.441406.359375-.800781.800782-.800781.4375 0 .796874.359375.796874.800781v1.8125c0 .441407-.359374.796875-.796874.796875m59.019531 22.324219h-5.851563c-.441406 0-.796875-.355469-.796875-.796875s.355469-.796875.796875-.796875h5.054688v-1.558594c0-.441406.355468-.796875.796875-.796875.441406 0 .796875.355469.796875.796875v2.355469c0 .441406-.355469.796875-.796875.796875m0-8.054687c-.441407 0-.796875-.359376-.796875-.796876V38.019531H40.210938v22.582031c0 .441407-.359376.796876-.796876.796876-.441406 0-.800781-.355469-.800781-.796876V37.222656c0-.441406.359375-.800781.800781-.800781h39.066407c.441406 0 .796875.359375.796875.800781v25.691406c0 .4375-.355469.796876-.796875.796876"/>
  <path fill="#eae9e9" d="M61.226562 58.617188h-4.558593c-.441407 0-.800781-.355469-.800781-.796876V37.222656c0-.441406.359374-.800781.800781-.800781.441406 0 .796875.359375.796875.800781v19.800782h3.761718c.441407 0 .796876.355468.796876.796874 0 .441407-.355469.796876-.796876.796876m17.253907 0H66.773438c-.4375 0-.796876-.355469-.796876-.796876 0-.441406.359376-.796874.796876-.796874h11.707031c.441406 0 .796875.355468.796875.796874 0 .441407-.355469.796876-.796875.796876"/>
  <path fill="#eae9e9" d="M56.667969 55.273438h-2.433594c-.441406 0-.796875-.355469-.796875-.796876 0-.441406.355469-.800781.796875-.800781h2.433594c.441406 0 .796875.359375.796875.800781 0 .441407-.355469.796876-.796875.796876m-7.527344 0h-9.726563c-.441406 0-.800781-.355469-.800781-.796876 0-.441406.359375-.800781.800781-.800781h9.726563c.441406 0 .800781.359375.800781.800781 0 .441407-.359375.796876-.800781.796876"/>
  <path fill="#eae9e9" d="M47.164062 64.320312c-.441406 0-.796874-.359374-.796874-.800781v-9.042969c0-.441406.355468-.800781.796874-.800781.441407 0 .800782.359375.800782.800781v9.042969c0 .441407-.359375.800781-.800782.800781m-7.75-.03125c-.210937 0-.417968-.085937-.566406-.234374-.148437-.152344-.234375-.355469-.234375-.566407 0-.207031.085938-.414062.234375-.5625.296875-.296875.832032-.296875 1.128906 0 .148438.148438.234376.355469.234376.5625 0 .210938-.085938.414063-.234376.566407-.148437.148437-.355468.234374-.5625.234374m0 2.492188c-.210937 0-.417968-.085938-.566406-.234375-.148437-.148437-.234375-.351563-.234375-.5625 0-.210937.085938-.417969.234375-.566406.296875-.296875.832032-.296875 1.128906 0 .148438.148437.234376.355469.234376.566406 0 .210937-.085938.414063-.234376.5625-.148437.148437-.355468.234375-.5625.234375m0 2.492188c-.210937 0-.417968-.082032-.566406-.234376-.148437-.148437-.234375-.351562-.234375-.5625 0-.210937.085938-.414062.234375-.5625.296875-.300781.832032-.300781 1.128906 0 .148438.148438.234376.351563.234376.5625 0 .210938-.085938.414063-.234376.5625-.148437.152344-.355468.234376-.5625.234376m0 2.492187c-.210937 0-.417968-.082031-.566406-.230469-.148437-.148437-.234375-.355468-.234375-.566406 0-.210938.085938-.414062.234375-.5625.296875-.296875.832032-.296875 1.128906 0 .148438.148438.234376.351562.234376.5625 0 .210938-.085938.417969-.234376.566406-.148437.148438-.355468.230469-.5625.230469m7.476563 0c-.207031 0-.414063-.082031-.566406-.230469-.144531-.148437-.230469-.355468-.230469-.566406 0-.210938.085938-.414062.230469-.5625.300781-.300781.835937-.296875 1.132812 0 .148438.148438.234375.351562.234375.5625 0 .210938-.085937.417969-.234375.566406-.148437.148438-.355469.230469-.566406.230469m-2.492187 0c-.207032 0-.414063-.082031-.566407-.230469-.144531-.148437-.230469-.355468-.230469-.566406 0-.210938.085938-.414062.230469-.5625.296875-.296875.835938-.300781 1.128907 0 .148437.148438.238281.351562.238281.5625 0 .210938-.089844.414062-.238281.566406-.144532.148438-.351563.230469-.5625.230469m4.984374 0c-.207031 0-.414062-.082031-.5625-.230469-.148437-.148437-.234374-.355468-.234374-.566406 0-.210938.085937-.414062.234374-.5625.296876-.296875.832032-.300781 1.128907 0 .148437.148438.234375.351562.234375.5625 0 .210938-.085938.417969-.234375.566406-.148438.148438-.355469.230469-.566407.230469m2.496094 0c-.210937 0-.417968-.082031-.566406-.230469-.148438-.148437-.230469-.355468-.230469-.566406 0-.210938.082031-.414062.230469-.5625.300781-.300781.832031-.296875 1.128906 0 .148438.148438.234375.351562.234375.5625 0 .210938-.085937.417969-.234375.566406-.148437.148438-.351562.230469-.5625.230469m2.492188 0c-.210938 0-.414063-.082031-.5625-.230469-.152344-.148437-.234375-.355468-.234375-.566406 0-.210938.082031-.414062.234375-.5625.296875-.296875.828125-.296875 1.128906 0 .148438.148438.230469.351562.230469.5625 0 .210938-.082031.417969-.230469.566406-.152344.148438-.355469.230469-.566406.230469m-12.464844 0c-.210938 0-.414062-.082031-.566406-.230469-.144532-.148437-.234375-.355468-.234375-.566406 0-.210938.089843-.414062.234375-.5625.296875-.300781.835937-.300781 1.128906 0 .148438.148438.234375.351562.234375.5625 0 .210938-.085937.417969-.234375.566406-.148438.148438-.355469.230469-.5625.230469"/>
</svg>
