<svg xmlns="http://www.w3.org/2000/svg" xmlns:xlink="http://www.w3.org/1999/xlink" width="140" zoomAndPan="magnify" viewBox="0 0 104.88 104.999996" height="140" preserveAspectRatio="xMidYMid meet" version="1.0"><defs><clipPath id="a94d2e0afd"><path d="M 0 0.0585938 L 104.761719 0.0585938 L 104.761719 104.9375 L 0 104.9375 Z M 0 0.0585938 " clip-rule="nonzero"/></clipPath><linearGradient x1="0.998857" gradientTransform="matrix(104.88, 0, 0, -104.88, 0, 104.939997)" y1="0.5" x2="0" gradientUnits="userSpaceOnUse" y2="0.5" id="ea537b9f72"><stop stop-opacity="1" stop-color="rgb(33.276367%, 41.572571%, 45.869446%)" offset="0"/><stop stop-opacity="1" stop-color="rgb(33.195496%, 41.477966%, 45.768738%)" offset="0.0078125"/><stop stop-opacity="1" stop-color="rgb(33.036804%, 41.290283%, 45.565796%)" offset="0.015625"/><stop stop-opacity="1" stop-color="rgb(32.878113%, 41.1026%, 45.36438%)" offset="0.0234375"/><stop stop-opacity="1" stop-color="rgb(32.717896%, 40.916443%, 45.161438%)" offset="0.03125"/><stop stop-opacity="1" stop-color="rgb(32.559204%, 40.72876%, 44.960022%)" offset="0.0390625"/><stop stop-opacity="1" stop-color="rgb(32.400513%, 40.541077%, 44.75708%)" offset="0.046875"/><stop stop-opacity="1" stop-color="rgb(32.240295%, 40.353394%, 44.555664%)" offset="0.0546875"/><stop stop-opacity="1" stop-color="rgb(32.081604%, 40.167236%, 44.352722%)" offset="0.0625"/><stop stop-opacity="1" stop-color="rgb(31.922913%, 39.979553%, 44.151306%)" offset="0.0703125"/><stop stop-opacity="1" stop-color="rgb(31.762695%, 39.79187%, 43.94989%)" offset="0.078125"/><stop stop-opacity="1" stop-color="rgb(31.604004%, 39.604187%, 43.746948%)" offset="0.0859375"/><stop stop-opacity="1" stop-color="rgb(31.445312%, 39.41803%, 43.545532%)" offset="0.09375"/><stop stop-opacity="1" stop-color="rgb(31.285095%, 39.230347%, 43.34259%)" offset="0.101562"/><stop stop-opacity="1" stop-color="rgb(31.126404%, 39.042664%, 43.141174%)" offset="0.109375"/><stop stop-opacity="1" stop-color="rgb(30.967712%, 38.85498%, 42.938232%)" offset="0.117187"/><stop stop-opacity="1" stop-color="rgb(30.807495%, 38.668823%, 42.736816%)" offset="0.125"/><stop stop-opacity="1" stop-color="rgb(30.648804%, 38.48114%, 42.533875%)" offset="0.132812"/><stop stop-opacity="1" stop-color="rgb(30.490112%, 38.293457%, 42.332458%)" offset="0.140625"/><stop stop-opacity="1" stop-color="rgb(30.329895%, 38.105774%, 42.129517%)" offset="0.148438"/><stop stop-opacity="1" stop-color="rgb(30.171204%, 37.919617%, 41.928101%)" offset="0.15625"/><stop stop-opacity="1" stop-color="rgb(30.012512%, 37.731934%, 41.726685%)" offset="0.164062"/><stop stop-opacity="1" stop-color="rgb(29.852295%, 37.54425%, 41.523743%)" offset="0.171875"/><stop stop-opacity="1" stop-color="rgb(29.693604%, 37.356567%, 41.322327%)" offset="0.179688"/><stop stop-opacity="1" stop-color="rgb(29.534912%, 37.17041%, 41.119385%)" offset="0.1875"/><stop stop-opacity="1" stop-color="rgb(29.374695%, 36.982727%, 40.917969%)" offset="0.195312"/><stop stop-opacity="1" stop-color="rgb(29.216003%, 36.795044%, 40.715027%)" offset="0.203125"/><stop stop-opacity="1" stop-color="rgb(29.057312%, 36.608887%, 40.513611%)" offset="0.210937"/><stop stop-opacity="1" stop-color="rgb(28.898621%, 36.421204%, 40.310669%)" offset="0.21875"/><stop stop-opacity="1" stop-color="rgb(28.738403%, 36.233521%, 40.109253%)" offset="0.226562"/><stop stop-opacity="1" stop-color="rgb(28.579712%, 36.045837%, 39.906311%)" offset="0.234375"/><stop stop-opacity="1" stop-color="rgb(28.421021%, 35.85968%, 39.704895%)" offset="0.242188"/><stop stop-opacity="1" stop-color="rgb(28.260803%, 35.671997%, 39.503479%)" offset="0.25"/><stop stop-opacity="1" stop-color="rgb(28.102112%, 35.484314%, 39.300537%)" offset="0.257812"/><stop stop-opacity="1" stop-color="rgb(27.94342%, 35.296631%, 39.099121%)" offset="0.265625"/><stop stop-opacity="1" stop-color="rgb(27.783203%, 35.110474%, 38.896179%)" offset="0.273438"/><stop stop-opacity="1" stop-color="rgb(27.624512%, 34.922791%, 38.694763%)" offset="0.28125"/><stop stop-opacity="1" stop-color="rgb(27.46582%, 34.735107%, 38.491821%)" offset="0.289062"/><stop stop-opacity="1" stop-color="rgb(27.305603%, 34.547424%, 38.290405%)" offset="0.296875"/><stop stop-opacity="1" stop-color="rgb(27.146912%, 34.361267%, 38.087463%)" offset="0.304688"/><stop stop-opacity="1" stop-color="rgb(26.98822%, 34.173584%, 37.886047%)" offset="0.3125"/><stop stop-opacity="1" stop-color="rgb(26.828003%, 33.985901%, 37.683105%)" offset="0.320312"/><stop stop-opacity="1" stop-color="rgb(26.669312%, 33.798218%, 37.481689%)" offset="0.328125"/><stop stop-opacity="1" stop-color="rgb(26.51062%, 33.612061%, 37.278748%)" offset="0.335938"/><stop stop-opacity="1" stop-color="rgb(26.350403%, 33.424377%, 37.077332%)" offset="0.34375"/><stop stop-opacity="1" stop-color="rgb(26.191711%, 33.236694%, 36.875916%)" offset="0.351562"/><stop stop-opacity="1" stop-color="rgb(26.03302%, 33.049011%, 36.672974%)" offset="0.359375"/><stop stop-opacity="1" stop-color="rgb(25.872803%, 32.862854%, 36.471558%)" offset="0.367188"/><stop stop-opacity="1" stop-color="rgb(25.714111%, 32.675171%, 36.268616%)" offset="0.375"/><stop stop-opacity="1" stop-color="rgb(25.55542%, 32.487488%, 36.0672%)" offset="0.382812"/><stop stop-opacity="1" stop-color="rgb(25.395203%, 32.301331%, 35.864258%)" offset="0.390625"/><stop stop-opacity="1" stop-color="rgb(25.236511%, 32.113647%, 35.662842%)" offset="0.398437"/><stop stop-opacity="1" stop-color="rgb(25.07782%, 31.925964%, 35.4599%)" offset="0.40625"/><stop stop-opacity="1" stop-color="rgb(24.917603%, 31.738281%, 35.258484%)" offset="0.414062"/><stop stop-opacity="1" stop-color="rgb(24.758911%, 31.552124%, 35.055542%)" offset="0.421875"/><stop stop-opacity="1" stop-color="rgb(24.60022%, 31.364441%, 34.854126%)" offset="0.429688"/><stop stop-opacity="1" stop-color="rgb(24.440002%, 31.176758%, 34.65271%)" offset="0.4375"/><stop stop-opacity="1" stop-color="rgb(24.281311%, 30.989075%, 34.449768%)" offset="0.445312"/><stop stop-opacity="1" stop-color="rgb(24.12262%, 30.802917%, 34.248352%)" offset="0.453125"/><stop stop-opacity="1" stop-color="rgb(23.962402%, 30.615234%, 34.04541%)" offset="0.460938"/><stop stop-opacity="1" stop-color="rgb(23.803711%, 30.427551%, 33.843994%)" offset="0.46875"/><stop stop-opacity="1" stop-color="rgb(23.64502%, 30.239868%, 33.641052%)" offset="0.476562"/><stop stop-opacity="1" stop-color="rgb(23.484802%, 30.053711%, 33.439636%)" offset="0.484375"/><stop stop-opacity="1" stop-color="rgb(23.326111%, 29.866028%, 33.236694%)" offset="0.492187"/><stop stop-opacity="1" stop-color="rgb(23.167419%, 29.678345%, 33.035278%)" offset="0.5"/><stop stop-opacity="1" stop-color="rgb(23.007202%, 29.490662%, 32.832336%)" offset="0.507812"/><stop stop-opacity="1" stop-color="rgb(22.848511%, 29.304504%, 32.63092%)" offset="0.515625"/><stop stop-opacity="1" stop-color="rgb(22.689819%, 29.116821%, 32.429504%)" offset="0.523438"/><stop stop-opacity="1" stop-color="rgb(22.529602%, 28.929138%, 32.226562%)" offset="0.53125"/><stop stop-opacity="1" stop-color="rgb(22.370911%, 28.741455%, 32.025146%)" offset="0.539062"/><stop stop-opacity="1" stop-color="rgb(22.212219%, 28.555298%, 31.822205%)" offset="0.546875"/><stop stop-opacity="1" stop-color="rgb(22.052002%, 28.367615%, 31.620789%)" offset="0.554688"/><stop stop-opacity="1" stop-color="rgb(21.893311%, 28.179932%, 31.417847%)" offset="0.5625"/><stop stop-opacity="1" stop-color="rgb(21.734619%, 27.993774%, 31.216431%)" offset="0.570312"/><stop stop-opacity="1" stop-color="rgb(21.574402%, 27.806091%, 31.013489%)" offset="0.578125"/><stop stop-opacity="1" stop-color="rgb(21.41571%, 27.618408%, 30.812073%)" offset="0.585938"/><stop stop-opacity="1" stop-color="rgb(21.257019%, 27.430725%, 30.609131%)" offset="0.59375"/><stop stop-opacity="1" stop-color="rgb(21.096802%, 27.244568%, 30.407715%)" offset="0.601562"/><stop stop-opacity="1" stop-color="rgb(20.93811%, 27.056885%, 30.206299%)" offset="0.609375"/><stop stop-opacity="1" stop-color="rgb(20.779419%, 26.869202%, 30.003357%)" offset="0.617188"/><stop stop-opacity="1" stop-color="rgb(20.619202%, 26.681519%, 29.801941%)" offset="0.625"/><stop stop-opacity="1" stop-color="rgb(20.46051%, 26.495361%, 29.598999%)" offset="0.632812"/><stop stop-opacity="1" stop-color="rgb(20.301819%, 26.307678%, 29.397583%)" offset="0.640625"/><stop stop-opacity="1" stop-color="rgb(20.141602%, 26.119995%, 29.194641%)" offset="0.648438"/><stop stop-opacity="1" stop-color="rgb(19.98291%, 25.932312%, 28.993225%)" offset="0.65625"/><stop stop-opacity="1" stop-color="rgb(19.824219%, 25.746155%, 28.790283%)" offset="0.664062"/><stop stop-opacity="1" stop-color="rgb(19.664001%, 25.558472%, 28.588867%)" offset="0.671875"/><stop stop-opacity="1" stop-color="rgb(19.50531%, 25.370789%, 28.385925%)" offset="0.679688"/><stop stop-opacity="1" stop-color="rgb(19.346619%, 25.183105%, 28.184509%)" offset="0.6875"/><stop stop-opacity="1" stop-color="rgb(19.186401%, 24.996948%, 27.983093%)" offset="0.695312"/><stop stop-opacity="1" stop-color="rgb(19.02771%, 24.809265%, 27.780151%)" offset="0.703125"/><stop stop-opacity="1" stop-color="rgb(18.869019%, 24.621582%, 27.578735%)" offset="0.710938"/><stop stop-opacity="1" stop-color="rgb(18.708801%, 24.433899%, 27.375793%)" offset="0.71875"/><stop stop-opacity="1" stop-color="rgb(18.55011%, 24.247742%, 27.174377%)" offset="0.726562"/><stop stop-opacity="1" stop-color="rgb(18.391418%, 24.060059%, 26.971436%)" offset="0.734375"/><stop stop-opacity="1" stop-color="rgb(18.231201%, 23.872375%, 26.77002%)" offset="0.742188"/><stop stop-opacity="1" stop-color="rgb(18.07251%, 23.686218%, 26.567078%)" offset="0.75"/><stop stop-opacity="1" stop-color="rgb(17.913818%, 23.498535%, 26.365662%)" offset="0.757812"/><stop stop-opacity="1" stop-color="rgb(17.755127%, 23.310852%, 26.16272%)" offset="0.765625"/><stop stop-opacity="1" stop-color="rgb(17.59491%, 23.123169%, 25.961304%)" offset="0.773437"/><stop stop-opacity="1" stop-color="rgb(17.436218%, 22.937012%, 25.758362%)" offset="0.78125"/><stop stop-opacity="1" stop-color="rgb(17.277527%, 22.749329%, 25.556946%)" offset="0.789062"/><stop stop-opacity="1" stop-color="rgb(17.11731%, 22.561646%, 25.35553%)" offset="0.796875"/><stop stop-opacity="1" stop-color="rgb(16.958618%, 22.373962%, 25.152588%)" offset="0.804688"/><stop stop-opacity="1" stop-color="rgb(16.799927%, 22.187805%, 24.951172%)" offset="0.8125"/><stop stop-opacity="1" stop-color="rgb(16.639709%, 22.000122%, 24.74823%)" offset="0.820312"/><stop stop-opacity="1" stop-color="rgb(16.481018%, 21.812439%, 24.546814%)" offset="0.828125"/><stop stop-opacity="1" stop-color="rgb(16.322327%, 21.624756%, 24.343872%)" offset="0.835938"/><stop stop-opacity="1" stop-color="rgb(16.162109%, 21.438599%, 24.142456%)" offset="0.84375"/><stop stop-opacity="1" stop-color="rgb(16.003418%, 21.250916%, 23.939514%)" offset="0.851562"/><stop stop-opacity="1" stop-color="rgb(15.844727%, 21.063232%, 23.738098%)" offset="0.859375"/><stop stop-opacity="1" stop-color="rgb(15.684509%, 20.875549%, 23.535156%)" offset="0.867187"/><stop stop-opacity="1" stop-color="rgb(15.525818%, 20.689392%, 23.33374%)" offset="0.875"/><stop stop-opacity="1" stop-color="rgb(15.367126%, 20.501709%, 23.132324%)" offset="0.882812"/><stop stop-opacity="1" stop-color="rgb(15.206909%, 20.314026%, 22.929382%)" offset="0.890625"/><stop stop-opacity="1" stop-color="rgb(15.048218%, 20.126343%, 22.727966%)" offset="0.898438"/><stop stop-opacity="1" stop-color="rgb(14.889526%, 19.940186%, 22.525024%)" offset="0.90625"/><stop stop-opacity="1" stop-color="rgb(14.729309%, 19.752502%, 22.323608%)" offset="0.914062"/><stop stop-opacity="1" stop-color="rgb(14.570618%, 19.564819%, 22.120667%)" offset="0.921875"/><stop stop-opacity="1" stop-color="rgb(14.411926%, 19.377136%, 21.91925%)" offset="0.929688"/><stop stop-opacity="1" stop-color="rgb(14.251709%, 19.190979%, 21.716309%)" offset="0.9375"/><stop stop-opacity="1" stop-color="rgb(14.093018%, 19.003296%, 21.514893%)" offset="0.945312"/><stop stop-opacity="1" stop-color="rgb(13.934326%, 18.815613%, 21.311951%)" offset="0.953125"/><stop stop-opacity="1" stop-color="rgb(13.774109%, 18.629456%, 21.110535%)" offset="0.960937"/><stop stop-opacity="1" stop-color="rgb(13.615417%, 18.441772%, 20.909119%)" offset="0.96875"/><stop stop-opacity="1" stop-color="rgb(13.456726%, 18.254089%, 20.706177%)" offset="0.976562"/><stop stop-opacity="1" stop-color="rgb(13.296509%, 18.066406%, 20.504761%)" offset="0.984375"/><stop stop-opacity="1" stop-color="rgb(13.137817%, 17.880249%, 20.301819%)" offset="0.992188"/><stop stop-opacity="1" stop-color="rgb(12.979126%, 17.692566%, 20.100403%)" offset="1"/></linearGradient><clipPath id="6cbc232854"><path d="M 21.808594 16.78125 L 83 16.78125 L 83 82.703125 L 21.808594 82.703125 Z M 21.808594 16.78125 " clip-rule="nonzero"/></clipPath><clipPath id="2c974cf206"><path d="M 8.265625 68.007812 L 96.664062 68.007812 L 96.664062 97 L 8.265625 97 Z M 8.265625 68.007812 " clip-rule="nonzero"/></clipPath><clipPath id="7fde111d3d"><path d="M 8.265625 8 L 96.605469 8 L 96.605469 36.914062 L 8.265625 36.914062 Z M 8.265625 8 " clip-rule="nonzero"/></clipPath></defs><g clip-path="url(#a94d2e0afd)"><path fill="#ffffff" d="M 0 0.0585938 L 104.878906 0.0585938 L 104.878906 104.941406 L 0 104.941406 Z M 0 0.0585938 " fill-opacity="1" fill-rule="nonzero"/><path fill="#ffffff" d="M 0 0.0585938 L 104.878906 0.0585938 L 104.878906 104.941406 L 0 104.941406 Z M 0 0.0585938 " fill-opacity="1" fill-rule="nonzero"/><path fill="url(#ea537b9f72)" d="M 0 104.941406 L 0 0.0585938 L 104.761719 0.0585938 L 104.761719 104.941406 Z M 0 104.941406 " fill-rule="nonzero"/></g><g clip-path="url(#6cbc232854)"><path fill="#eae9e9" d="M 82.996094 38.886719 C 82.996094 38.84375 82.992188 38.804688 82.984375 38.765625 C 82.980469 38.753906 82.976562 38.746094 82.976562 38.734375 C 82.96875 38.703125 82.960938 38.671875 82.949219 38.644531 C 82.945312 38.632812 82.941406 38.625 82.9375 38.613281 C 82.921875 38.582031 82.90625 38.550781 82.886719 38.519531 L 73.796875 24.234375 C 73.667969 24.03125 73.445312 23.910156 73.207031 23.910156 L 65.316406 23.910156 L 65.316406 17.476562 C 65.316406 17.089844 65.003906 16.777344 64.617188 16.777344 L 40.238281 16.777344 C 39.851562 16.777344 39.539062 17.089844 39.539062 17.476562 L 39.539062 23.910156 L 31.648438 23.910156 C 31.410156 23.910156 31.1875 24.03125 31.058594 24.234375 L 21.96875 38.519531 C 21.949219 38.550781 21.933594 38.582031 21.917969 38.613281 C 21.914062 38.625 21.910156 38.632812 21.90625 38.640625 C 21.894531 38.671875 21.886719 38.703125 21.878906 38.734375 C 21.878906 38.746094 21.875 38.753906 21.871094 38.765625 C 21.863281 38.804688 21.859375 38.84375 21.859375 38.886719 C 21.859375 38.890625 21.859375 38.890625 21.859375 38.894531 L 21.859375 45.117188 C 21.859375 47.5625 23.847656 49.550781 26.289062 49.550781 C 26.671875 49.550781 27.039062 49.5 27.390625 49.410156 L 27.390625 78.765625 L 24.699219 78.765625 C 24.316406 78.765625 24.003906 79.078125 24.003906 79.460938 L 24.003906 81.953125 C 24.003906 82.335938 24.316406 82.648438 24.699219 82.648438 L 81.953125 82.648438 C 82.339844 82.648438 82.648438 82.335938 82.648438 81.953125 L 82.648438 79.460938 C 82.648438 79.078125 82.339844 78.765625 81.953125 78.765625 L 78.570312 78.765625 L 78.570312 49.546875 C 81.011719 49.546875 82.996094 47.558594 82.996094 45.117188 L 82.996094 38.894531 C 82.996094 38.890625 82.996094 38.890625 82.996094 38.886719 Z M 40.933594 18.171875 L 63.921875 18.171875 L 63.921875 23.910156 L 40.933594 23.910156 Z M 32.03125 25.304688 L 40.234375 25.304688 C 40.234375 25.304688 40.238281 25.304688 40.238281 25.304688 L 64.617188 25.304688 C 64.621094 25.304688 64.621094 25.304688 64.621094 25.304688 L 72.824219 25.304688 L 81.027344 38.199219 L 23.828125 38.199219 Z M 48.699219 75.929688 L 48.699219 57.957031 C 48.699219 57.574219 48.386719 57.261719 48.003906 57.261719 L 33.066406 57.261719 C 32.679688 57.261719 32.371094 57.574219 32.371094 57.957031 L 32.371094 78.765625 L 28.785156 78.765625 L 28.785156 48.777344 C 29.28125 48.4375 29.699219 48.003906 30.023438 47.5 C 30.8125 48.730469 32.191406 49.546875 33.757812 49.546875 C 35.324219 49.546875 36.703125 48.730469 37.492188 47.5 C 38.28125 48.730469 39.660156 49.546875 41.226562 49.546875 C 42.792969 49.546875 44.171875 48.730469 44.960938 47.5 C 45.746094 48.730469 47.125 49.546875 48.695312 49.546875 C 50.261719 49.546875 51.640625 48.730469 52.425781 47.5 C 53.214844 48.730469 54.59375 49.546875 56.160156 49.546875 C 57.730469 49.546875 59.109375 48.730469 59.894531 47.5 C 60.683594 48.730469 62.0625 49.546875 63.628906 49.546875 C 65.195312 49.546875 66.574219 48.730469 67.363281 47.5 C 68.152344 48.730469 69.53125 49.546875 71.097656 49.546875 C 72.664062 49.546875 74.042969 48.730469 74.828125 47.5 C 75.371094 48.347656 76.191406 49.003906 77.175781 49.324219 L 77.175781 75.929688 Z M 77.175781 77.324219 L 77.175781 78.765625 L 48.699219 78.765625 L 48.699219 77.324219 Z M 47.304688 58.65625 L 47.304688 78.765625 L 33.761719 78.765625 L 33.761719 58.65625 Z M 30.722656 45.117188 L 30.722656 39.589844 L 36.792969 39.589844 L 36.792969 45.117188 C 36.792969 46.792969 35.433594 48.15625 33.757812 48.15625 C 32.082031 48.15625 30.722656 46.792969 30.722656 45.117188 Z M 38.1875 45.117188 L 38.1875 39.589844 L 44.261719 39.589844 L 44.261719 45.117188 C 44.261719 46.792969 42.898438 48.15625 41.226562 48.15625 C 39.550781 48.15625 38.1875 46.792969 38.1875 45.117188 Z M 45.65625 45.117188 L 45.65625 39.589844 L 51.730469 39.589844 L 51.730469 45.117188 C 51.730469 46.792969 50.367188 48.15625 48.695312 48.15625 C 47.019531 48.15625 45.65625 46.792969 45.65625 45.117188 Z M 53.125 45.117188 L 53.125 39.589844 L 59.199219 39.589844 L 59.199219 45.117188 C 59.199219 46.792969 57.835938 48.15625 56.160156 48.15625 C 54.488281 48.15625 53.125 46.792969 53.125 45.117188 Z M 60.59375 45.117188 L 60.59375 39.589844 L 66.667969 39.589844 L 66.667969 45.117188 C 66.667969 46.792969 65.304688 48.15625 63.628906 48.15625 C 61.953125 48.15625 60.59375 46.792969 60.59375 45.117188 Z M 68.058594 45.117188 L 68.058594 39.589844 L 74.132812 39.589844 L 74.132812 45.117188 C 74.132812 46.792969 72.773438 48.15625 71.097656 48.15625 C 69.421875 48.15625 68.0625 46.792969 68.0625 45.117188 C 68.0625 45.117188 68.058594 45.117188 68.058594 45.117188 Z M 26.289062 48.15625 C 24.617188 48.15625 23.253906 46.792969 23.253906 45.117188 L 23.253906 39.589844 L 29.328125 39.589844 L 29.328125 45.117188 C 29.328125 46.792969 27.964844 48.15625 26.289062 48.15625 Z M 81.257812 80.160156 L 81.257812 81.253906 L 25.398438 81.253906 L 25.398438 80.160156 Z M 81.601562 45.117188 C 81.601562 46.792969 80.238281 48.15625 78.566406 48.15625 C 78.375 48.15625 78.1875 48.136719 78 48.101562 C 76.570312 47.832031 75.527344 46.578125 75.527344 45.117188 L 75.527344 39.589844 L 81.601562 39.589844 Z M 81.601562 45.117188 " fill-opacity="1" fill-rule="nonzero"/></g><path fill="#eae9e9" d="M 72.894531 51.039062 L 52.980469 51.039062 C 52.597656 51.039062 52.285156 51.351562 52.285156 51.734375 L 52.285156 72.894531 C 52.285156 73.277344 52.597656 73.589844 52.980469 73.589844 L 72.894531 73.589844 C 73.28125 73.589844 73.59375 73.277344 73.59375 72.894531 L 73.59375 51.734375 C 73.59375 51.351562 73.28125 51.039062 72.894531 51.039062 Z M 72.199219 72.195312 L 53.679688 72.195312 L 53.679688 52.433594 L 72.199219 52.433594 Z M 72.199219 72.195312 " fill-opacity="1" fill-rule="nonzero"/><g clip-path="url(#2c974cf206)"><path fill="#eae9e9" d="M 21.707031 76.613281 L 12.972656 71.484375 C 21.058594 85.210938 36.648438 94.398438 52.480469 94.589844 C 54.648438 94.589844 56.804688 94.441406 58.949219 94.144531 C 61.09375 93.84375 63.207031 93.402344 65.289062 92.8125 C 67.375 92.222656 69.410156 91.496094 71.390625 90.628906 C 73.375 89.757812 75.292969 88.757812 77.136719 87.628906 C 78.984375 86.496094 80.742188 85.242188 82.417969 83.867188 C 84.089844 82.496094 85.664062 81.011719 87.132812 79.421875 C 88.601562 77.832031 89.957031 76.148438 91.195312 74.371094 C 92.433594 72.59375 93.542969 70.742188 94.527344 68.8125 L 96.597656 69.835938 C 88.511719 86.242188 70.757812 97.117188 52.453125 96.902344 C 35.746094 96.703125 19.289062 86.949219 10.859375 72.433594 L 9.882812 82.683594 C 9.863281 82.898438 9.769531 83.078125 9.605469 83.21875 C 9.441406 83.363281 9.253906 83.425781 9.035156 83.414062 C 8.738281 83.394531 8.523438 83.246094 8.398438 82.976562 C 8.3125 82.84375 8.269531 82.695312 8.265625 82.539062 L 9.535156 68.953125 C 9.566406 68.660156 9.714844 68.445312 9.976562 68.3125 C 10.230469 68.164062 10.488281 68.164062 10.746094 68.3125 L 22.515625 75.242188 C 22.707031 75.359375 22.832031 75.523438 22.886719 75.738281 C 22.945312 75.953125 22.917969 76.160156 22.808594 76.351562 C 22.695312 76.550781 22.53125 76.671875 22.3125 76.726562 C 22.09375 76.777344 21.890625 76.742188 21.707031 76.613281 Z M 21.707031 76.613281 " fill-opacity="1" fill-rule="nonzero"/></g><g clip-path="url(#7fde111d3d)"><path fill="#eae9e9" d="M 83.167969 28.378906 L 91.898438 33.507812 C 83.8125 19.785156 68.226562 10.59375 52.390625 10.402344 C 50.222656 10.402344 48.070312 10.554688 45.925781 10.851562 C 43.777344 11.148438 41.664062 11.589844 39.582031 12.179688 C 37.496094 12.769531 35.464844 13.496094 33.480469 14.367188 C 31.496094 15.234375 29.582031 16.234375 27.734375 17.367188 C 25.886719 18.5 24.128906 19.75 22.453125 21.125 C 20.78125 22.5 19.210938 23.980469 17.738281 25.570312 C 16.269531 27.160156 14.914062 28.84375 13.675781 30.621094 C 12.4375 32.398438 11.328125 34.25 10.34375 36.179688 L 8.273438 35.15625 C 16.359375 18.75 34.113281 7.875 52.421875 8.09375 C 69.125 8.292969 85.585938 18.042969 94.011719 32.5625 L 94.988281 22.308594 C 95.007812 22.09375 95.101562 21.914062 95.265625 21.773438 C 95.429688 21.632812 95.621094 21.566406 95.835938 21.578125 C 96.132812 21.601562 96.347656 21.746094 96.476562 22.015625 C 96.558594 22.152344 96.605469 22.296875 96.605469 22.457031 L 95.335938 36.042969 C 95.304688 36.335938 95.15625 36.546875 94.894531 36.679688 C 94.640625 36.828125 94.382812 36.828125 94.125 36.679688 L 82.359375 29.75 C 82.164062 29.636719 82.039062 29.472656 81.984375 29.253906 C 81.925781 29.039062 81.953125 28.835938 82.066406 28.640625 C 82.175781 28.445312 82.339844 28.320312 82.558594 28.269531 C 82.777344 28.214844 82.980469 28.253906 83.167969 28.378906 Z M 83.167969 28.378906 " fill-opacity="1" fill-rule="nonzero"/></g></svg>